<?xml version="1.0" encoding="UTF-8"?>
<svg id="Layer_1" data-name="Layer 1" xmlns="http://www.w3.org/2000/svg" viewBox="0 0 492.25 492.25">
  <defs>
    <style>
      .cls-1 {
        font-size: 61.55px;
      }

      .cls-1, .cls-2, .cls-3 {
        fill: #1a401d;
      }

      .cls-1, .cls-3 {
        font-family: BitterRoman-SemiBold, Bitter;
        font-variation-settings: 'wght' 600;
        font-weight: 600;
      }

      .cls-4 {
        fill: #af9030;
      }

      .cls-4, .cls-2 {
        stroke-width: 0px;
      }

      .cls-3 {
        font-size: 58.19px;
      }
    </style>
  </defs>
  <circle class="cls-2" cx="240.65" cy="236.78" r="157.5"/>
  <path class="cls-4" d="m246.13,0C110.19,0,0,110.19,0,246.13s110.19,246.13,246.13,246.13,246.13-110.19,246.13-246.13S382.06,0,246.13,0Zm-1.67,478.11c-128.72,0-233.08-104.35-233.08-233.08S115.73,11.96,244.45,11.96s233.08,104.35,233.08,233.08-104.35,233.08-233.08,233.08Z"/>
  <path class="cls-4" d="m242.52,78.73c-88.84,0-160.86,72.02-160.86,160.86s72.02,160.86,160.86,160.86,160.86-72.02,160.86-160.86-72.02-160.86-160.86-160.86Zm-1.09,312.48c-84.13,0-152.33-68.2-152.33-152.33S157.29,86.54,241.42,86.54s152.33,68.2,152.33,152.33-68.2,152.33-152.33,152.33Z"/>
  <text class="cls-3" transform="translate(69.85 184.38) rotate(-60.87)"><tspan x="0" y="0">H</tspan></text>
  <text class="cls-3" transform="translate(94 142.17) rotate(-46.38)"><tspan x="0" y="0">O</tspan></text>
  <text class="cls-3" transform="translate(125.23 109.11) rotate(-31.14)"><tspan x="0" y="0">M</tspan></text>
  <text class="cls-3" transform="translate(171.87 82.42) rotate(-16.83)"><tspan x="0" y="0">E</tspan></text>
  <text class="cls-3" transform="translate(207.57 71.42) rotate(-4.16)"><tspan x="0" y="0">O</tspan></text>
  <text class="cls-3" transform="translate(250.38 67.15) rotate(11.49)"><tspan x="0" y="0">W</tspan></text>
  <text class="cls-3" transform="translate(309.64 80.45) rotate(28.18)"><tspan x="0" y="0">N</tspan></text>
  <text class="cls-3" transform="translate(351.6 103.94) rotate(41.53)"><tspan x="0" y="0">E</tspan></text>
  <text class="cls-3" transform="translate(380.41 129.67) rotate(53.86)"><tspan x="0" y="0">R</tspan></text>
  <text class="cls-3" transform="translate(404.52 163.55) rotate(66.17)"><tspan x="0" y="0">S</tspan></text>
  <text class="cls-1" transform="translate(52.09 328.44) rotate(63.28) scale(1.04 1)"><tspan x="0" y="0">A</tspan></text>
  <text class="cls-1" transform="translate(79.61 378.45) rotate(47.6) scale(1.04 1)"><tspan x="0" y="0">S</tspan></text>
  <text class="cls-1" transform="translate(115.01 414.9) rotate(33.24) scale(1.04 1)"><tspan x="0" y="0">S</tspan></text>
  <text class="cls-1" transform="translate(158.62 442.09) rotate(17.85) scale(1.04 1)"><tspan x="0" y="0">O</tspan></text>
  <text class="cls-1" transform="translate(216.3 458.39) rotate(2.49) scale(1.04 1)"><tspan x="0" y="0">C</tspan></text>
  <text class="cls-1" transform="translate(267.96 458.68) rotate(-8.93) scale(1.04 1)"><tspan x="0" y="0">I</tspan></text>
  <text class="cls-1" transform="translate(300.37 453.78) rotate(-20.95) scale(1.04 1)"><tspan x="0" y="0">A</tspan></text>
  <text class="cls-1" transform="translate(348.99 433.87) rotate(-34.54) scale(1.04 1)"><tspan x="0" y="0">T</tspan></text>
  <text class="cls-1" transform="translate(387.74 405.11) rotate(-45.97) scale(1.04 1)"><tspan x="0" y="0">I</tspan></text>
  <text class="cls-1" transform="translate(412.17 379.9) rotate(-59.67) scale(1.04 1)"><tspan x="0" y="0">O</tspan></text>
  <text class="cls-1" transform="translate(441.53 325.46) rotate(-78.74) scale(1.04 1)"><tspan x="0" y="0">N</tspan></text>
  <g id="main-logo">
    <ellipse class="cls-2" cx="236.73" cy="244.62" rx="127.36" ry="66.89"/>
    <path class="cls-4" d="m206.95,251.18c-4.37,0-5.37.35-2.78,1,1.16.27,1.47.54,1.55,1.39.08.62-1.82,6.65-4.6,14.49-2.59,7.38-4.75,13.49-4.79,13.57-.08.08-12.29-25.12-13.18-27.21-.66-1.58-.19-2.13,1.93-2.36.97-.12,1.66-.35,1.55-.54-.27-.46-13.95-.46-14.22,0-.12.19.39.46,1.08.58.73.15,1.7.54,2.09.93.43.35,4.64,8.66,9.35,18.44,4.68,9.74,8.62,17.82,8.73,17.93.46.5,1.43-1.93,7.11-18.17,4.25-12.06,6.42-17.74,7-18.2.43-.39,1.39-.77,2.13-.93,2.63-.5,1.24-.93-2.94-.93Z"/>
    <path class="cls-4" d="m229.91,310.36c-1.43-.77-5.87-1.78-27.21-6.26-10.24-2.13-15.46-3.48-21.64-5.6-17.39-5.99-30.88-13.41-41.63-22.96-12.37-11.02-18.67-24.35-17.78-37.68.15-1.93.62-5.68,1.04-8.31.46-2.63.73-4.95.66-5.22-.31-.81,5.1-6.96,9.47-10.74l2.28-1.97,3.29,1.24c1.82.7,3.52,1.2,3.75,1.08.27-.08.93-1.62,1.55-3.4,1.89-5.72,2.63-6.76,6.84-9.12,13.14-7.38,34.05-14.26,53.14-17.47,17.24-2.94,37.99-4.14,54.69-3.17,14.53.85,14.22.81,9.28.23-4.29-.54-34.24-1.08-38.84-.73-18.17,1.47-29.8,3.21-43.13,6.57-10.71,2.67-24.89,7.77-33.28,11.98l-3.52,1.78,1.24-1.58c2.71-3.44,7.81-6.8,15.11-10.01l.97-.43h-.97c-.54-.04-2.24.31-3.79.73-8.12,2.24-14.92,7.19-19.63,14.3-2.28,3.4-3.29,3.98-5.99,3.44-1.16-.23-4.17-.43-6.73-.43-5.64.04-9.24.85-14.42,3.36-3.13,1.51-8.19,4.87-8.19,5.45,0,.12.97-.35,2.13-1,2.67-1.51,7.81-3.29,11.29-3.9,2.78-.5,10.86-.27,12.41.31.89.35.77.5-2.09,3.05-6.15,5.49-11.48,12.95-13.95,19.56-3.79,10.05-3.32,20.21,1.39,29.84,1.97,4.06,1.39,3.79-1.12-.54-3.21-5.53-4.6-9.93-4.91-15.65-.23-4.72.39-8.23,2.4-13.03,1.55-3.75,1.55-3.79-.35-.89-2.24,3.4-3.17,5.87-3.94,10.36-1.86,10.71,2.63,22.46,12.52,32.81,4.44,4.64,7.42,7.07,13.72,11.29,17.66,11.79,44.29,20.48,71.19,23.23,6.8.7,21.06.89,22.61.31q.93-.39.15-.81Z"/>
    <path class="cls-4" d="m130.81,159.04c6.73-2.13,16.04-2.78,22.42-1.55,6.22,1.16,12.75,3.98,19.02,8.16,1.7,1.16,3.4,2.05,3.71,1.97.31-.08,1.47-1.62,2.55-3.52,2.98-5.06,5.06-7.73,9.16-11.63,5.99-5.68,12.25-8.93,21.37-11.09,2.59-.62,5.22-1.28,5.84-1.47.85-.27.04-.35-2.9-.31-6.96.04-11.56.85-17.2,3.01-7.03,2.71-11.71,5.95-17.86,12.29l-3.13,3.29-3.71-1.47c-8.08-3.21-12.17-3.9-20.37-3.59-6.03.23-10.4,1.12-15.69,3.29-2.86,1.16-6.45,3.13-6.22,3.36.08.12,1.43-.23,3.01-.73Z"/>
    <path class="cls-4" d="m250.75,240.48c-.39.39-1.2.66-1.74.66-.58,0-1.04.15-1.04.39s2.32.39,6.18.39,6.18-.15,6.18-.39-.5-.39-1.12-.39c-2.24,0-2.36-.39-2.36-9.28,0-4.56-.19-8.97-.43-10.13-.93-4.25-5.06-6.65-9.93-5.72-2.71.5-3.98,1.2-5.64,3.17-.77.89-1.39,1.39-1.39,1.16,0-1.12-2.82-3.56-4.75-4.14-1.08-.31-2.4-.58-2.94-.54-2.9.12-5.91,1.47-7.38,3.32l-.77,1v-1.82c0-.97-.12-1.78-.27-1.74-1.82.12-9.2,1.86-9.28,2.16-.08.23.58.5,1.51.62.89.12,1.86.5,2.13.89.39.5.5,3.05.5,10.2,0,8.77-.08,9.59-.7,10.16-.39.39-1.2.66-1.74.66-.58,0-1.04.15-1.04.39s2.43.39,6.57.39,6.57-.15,6.57-.39-.62-.39-1.35-.39c-.85,0-1.66-.31-2.13-.77-.73-.73-.77-1.28-.77-9.2,0-9.51.27-10.67,2.86-12.64,1.66-1.28,4.52-1.66,6.03-.89,2.09,1.12,2.32,2.32,2.32,12.75,0,9.43,0,9.55-.85,10.13-.46.35-1.28.62-1.74.62-.5,0-.89.15-.89.39s2.32.39,6.18.39,6.18-.15,6.18-.39-.5-.39-1.08-.39c-2.28,0-2.4-.54-2.4-10.01s.19-10.59,2.98-12.68c1.16-.89,1.78-1.08,3.63-1.08,2.59,0,3.59.7,4.21,2.86.19.77.39,5.49.39,10.51,0,8.35-.08,9.16-.7,9.74Z"/>
    <path class="cls-4" d="m178,234.21c.93-2.47,1.43-6.22.85-6.22-.23,0-.5.97-.66,2.16-.43,3.71-2.43,6.76-5.45,8.39-1.28.7-2.2.85-5.22.85s-3.98-.15-5.6-.93c-5.53-2.74-8.43-8.7-8.39-17.24,0-8.66,3.29-14.03,9.66-15.89,2.4-.7,5.84-.31,7.88.89,2.63,1.55,4.56,5.57,4.56,9.47,0,.81.19,1.47.39,1.47.23,0,.39-2.43.39-6.57s-.15-6.57-.39-6.57c-.19,0-.39.23-.39.54,0,.27-.27.73-.58,1-.5.43-1.04.31-3.21-.5-1.43-.58-3.36-1.12-4.29-1.28l-1.7-.27,2.94-1.47c5.64-2.86,14.84-6.26,22.8-8.46,2.16-.62,3.59-1.08,3.17-1.12-2.71,0-17.78,4.91-25.51,8.27-2.74,1.24-6.07,2.55-7.34,2.98-4.48,1.47-6.88,2.78-9.08,4.95-1.16,1.16-3.71,3.32-5.6,4.83-4.6,3.59-7.65,6.65-10.63,10.63-2.78,3.71-5.76,9.74-6.76,13.64-.66,2.43-.66,2.67-.04,4.06.35.77,1.16,3.52,1.78,6.07,1.31,5.37,2.59,8.12,5.8,12.6,1.97,2.78,8.77,10.09,7.88,8.46-.15-.31-1.78-2.86-3.59-5.6-6.73-10.32-8.08-14.11-7.65-21.64.43-8.27,4.17-16,11.09-23.15l3.44-3.52-.54,2.13c-3.32,12.48,2.86,23.27,14.42,25.16,7.03,1.16,13.3-2.13,15.58-8.12Z"/>
    <path class="cls-4" d="m219.51,203.29h-1.16c-1.66-.04-5.95,1.58-8.04,2.98-.97.66-2.59,2.2-3.63,3.4l-1.89,2.16-2.28-.66c-1.7-.5-3.21-.62-6.03-.5-3.29.15-4.1.35-6.69,1.58-1.62.77-2.94,1.47-2.94,1.58,0,.08.93-.19,2.05-.62,4.33-1.66,10.01-1.28,14.57,1.04,1.04.54,2.09.97,2.28.97s.97-1.08,1.66-2.4c2.24-4.21,5.8-7.23,10.74-9.04l1.35-.5Z"/>
    <path class="cls-4" d="m254.34,288.67c-.12-.23-.66-.39-1.2-.39-.5,0-1.28-.35-1.7-.77-.73-.73-.77-1.28-.77-8.62s.08-7.88.89-9.31c1.39-2.43,2.63-3.13,5.64-3.13,1.86,0,2.9.19,3.63.7.93.62,2.28,2.4,2.74,3.56.08.19.27.27.43.12.19-.15,0-1.78-.35-3.56-.58-2.63-.85-3.32-1.58-3.63-.97-.46-4.06-.89-4.64-.66-.19.08-.85.23-1.43.35-1.51.35-3.29,2.01-4.37,4.06l-.93,1.78-.04-2.82c0-1.51-.08-2.78-.15-2.78-.19,0-7.46,1.47-8.66,1.74-1.24.31-.77.81,1,1.12q2.59.39,2.59,11.13c0,9.12-.04,9.66-.73,10.2-.43.31-1.24.54-1.86.54-.58,0-1.08.15-1.08.39s2.4.39,6.42.39,6.3-.12,6.15-.39Z"/>
    <path class="cls-4" d="m212.02,236.88c-.19,0-.39.35-.39.81,0,2.78-3.4,4.6-4.79,2.59-.5-.73-.62-2.24-.62-8.62,0-4.37-.19-8.39-.43-9.28-.93-3.4-3.86-5.6-8.5-6.38-2.74-.43-2.63-.43-4.87,0-4.37.89-7.85,4.44-7.85,8.12,0,1.58.62,1.47.89-.19.54-3.32,3.67-5.37,8.19-5.37s7.15,2.2,7.15,6.34v2.2l-2.2-.77c-5.91-2.01-13.41.97-14.76,5.8-.54,1.97-.54,2.71.15,4.99,1.74,5.95,10.13,7.34,14.92,2.55l1.78-1.82.46,1.62c.54,2.13,2.05,2.98,5.26,2.98,2.74,0,4.56-.81,5.41-2.47.66-1.28.77-3.09.19-3.09Zm-11.33-4.99c-.08,3.09-.27,3.98-.93,4.83-1.54,2.09-2.7,2.67-5.37,2.67-2.08,0-2.62-.15-3.47-.97-3.28-3.01-2.66-9.51,1.04-11.25,1.93-.89,4.55-.81,7.18.23l1.7.7-.15,3.79Z"/>
    <path class="cls-4" d="m290.8,222.59c-1.46-2.96-3.57-4.99-6.14-5.87-5.37-1.8-10.13-.46-12.28,3.45-.35.65-.42.38-.46-1.46,0-1.19-.08-2.19-.15-2.19-.19,0-7.41,1.46-8.6,1.73-1.11.27-.73.96.5.96.5,0,1.42.42,2,.92l1.07.92v15.39c0,11.09-.12,15.47-.46,15.82-.23.23-1,.54-1.73.69-2.73.58-.88,1,4.57,1.11,5.87.12,7.29-.04,6.26-.69-.31-.23-.96-.38-1.42-.38-1.73,0-2.03-1.23-2.03-7.64v-5.91l.88.77c1.8,1.69,3.38,2.19,6.6,2.19,3.88,0,7.1-1.34,9.44-3.88,2.57-2.8,3.22-4.64,3.22-9.33,0-3.8-.08-4.18-1.27-6.6Zm-5.04,13.72c-2.01,4.25-6.76,5.99-10.78,3.94-2.82-1.39-3.09-2.36-3.09-10.32,0-6.3.08-6.88.93-8.73.81-1.78,2.13-3.13,3.71-3.75.31-.15,1.66-.19,2.94-.15,3.01.12,4.68,1.31,6.15,4.29,1.82,3.71,1.89,11.05.15,14.73Z"/>
    <path class="cls-4" d="m237.89,277.86c-.19,0-.39.46-.39,1.04,0,1.43-1.58,4.72-2.74,5.8-1.35,1.24-3.56,2.05-5.6,2.05-5.84,0-9.28-3.79-9.74-10.63l-.19-3.29h18.28v-1.28c0-2.9-2.71-6.61-5.68-7.85-1.66-.7-4.99-.97-7.03-.54-4.17.89-7.81,3.79-9.62,7.65-.89,1.89-1.04,2.71-1.04,5.87s.15,3.98,1,5.8c2.01,4.25,4.75,6.26,9.66,7,2.4.39,3.25.35,5.33-.19,2.86-.73,4.33-1.7,5.87-3.83,1.7-2.36,3.01-7.61,1.89-7.61Zm-18.38-6.7c.15-.66.73-2.13,1.35-3.17.81-1.47,1.51-2.16,3.09-3.01,2.4-1.24,3.83-1.31,6.03-.27,1.93.97,2.82,2.55,3.13,5.64l.23,2.09h-14.11l.27-1.28Z"/>
    <path class="cls-4" d="m281.74,182.93q2.24.19-.58-.35c-1.58-.27-4.29-.62-5.99-.73l-3.09-.19,3.67.54c2.01.27,4.72.62,5.99.73Z"/>
    <path class="cls-4" d="m209.81,299.15c-.43,0-.54.12-.23.23.27.12.62.08.73-.04.15-.12-.08-.23-.5-.19Z"/>
    <path class="cls-4" d="m207.88,298.76c-.43,0-.54.12-.23.23.27.12.62.08.73-.04.15-.12-.08-.23-.5-.19Z"/>
    <path class="cls-4" d="m150.52,276.42c0,.12.81.85,1.82,1.66s1.7,1.28,1.55,1.04c-.35-.54-3.36-2.98-3.36-2.71Z"/>
    <path class="cls-4" d="m154.39,279.55c0,.08.31.39.7.66.58.5.62.46.12-.15-.5-.62-.81-.81-.81-.5Z"/>
    <path class="cls-4" d="m291.01,184.55c2.94.66,4.14.62,1.55-.04-1.04-.27-2.36-.5-2.9-.5s.08.23,1.35.54Z"/>
    <path class="cls-4" d="m355.29,206.77c.58.5.62.46.12-.15-.5-.62-.81-.81-.81-.5,0,.08.31.39.7.66Z"/>
    <path class="cls-4" d="m284.75,183.43c.35.08.89.08,1.16,0,.23-.12-.04-.19-.7-.19-.62,0-.85.08-.46.19Z"/>
    <path class="cls-4" d="m300.41,186.52c.27.12.62.08.73-.04.15-.12-.08-.23-.5-.19-.43,0-.54.12-.23.23Z"/>
    <path class="cls-4" d="m359.15,209.87c1.43,1.12,2.36,1.78,2.09,1.43-.62-.77-5.33-4.48-4.99-3.9.15.23,1.43,1.35,2.9,2.47Z"/>
    <path class="cls-4" d="m298.47,186.13c.27.12.62.08.73-.04.15-.12-.08-.23-.5-.19-.43,0-.54.12-.23.23Z"/>
    <path class="cls-4" d="m287.07,183.82c.35.08.89.08,1.16,0,.23-.12-.04-.19-.7-.19-.62,0-.85.08-.46.19Z"/>
    <path class="cls-4" d="m294.99,185.36c.23.08.7.08.97,0,.23-.12.04-.19-.5-.19s-.73.08-.46.19Z"/>
    <path class="cls-4" d="m296.93,185.75c.27.12.62.08.73-.04.15-.12-.08-.23-.5-.19-.43,0-.54.12-.23.23Z"/>
    <path class="cls-4" d="m234.2,302.32c-1.47,0-2.13.08-1.47.15.7.08,1.93.08,2.71,0,.81-.08.27-.15-1.24-.15Z"/>
    <path class="cls-4" d="m308.21,297.79c0,.66.85.54,1.08-.15.08-.27-.12-.46-.46-.46s-.62.27-.62.62Z"/>
    <path class="cls-4" d="m288,290.84c.15-.12-.08-.23-.5-.19-.43,0-.54.12-.23.23.27.12.62.08.73-.04Z"/>
    <path class="cls-4" d="m286.07,291.22c.15-.12-.08-.23-.5-.19-.43,0-.54.12-.23.23.27.12.62.08.73-.04Z"/>
    <path class="cls-4" d="m282.05,292.04c.23-.12.04-.19-.5-.19s-.73.08-.46.19c.23.08.7.08.97,0Z"/>
    <path class="cls-4" d="m284.13,291.61c.15-.12-.08-.23-.5-.19-.43,0-.54.12-.23.23.27.12.62.08.73-.04Z"/>
    <path class="cls-4" d="m279.5,292.38c.15-.12-.08-.23-.5-.19-.43,0-.54.12-.23.23.27.12.62.08.73-.04Z"/>
    <path class="cls-4" d="m225.62,301.7c.23-.12.04-.19-.5-.19s-.73.08-.46.19c.23.08.7.08.97,0Z"/>
    <path class="cls-4" d="m222.91,301.31c.23-.12-.04-.19-.7-.19-.62,0-.85.08-.46.19.35.08.89.08,1.16,0Z"/>
    <path class="cls-4" d="m219.82,300.92c.23-.12-.04-.19-.7-.19-.62,0-.85.08-.46.19.35.08.89.08,1.16,0Z"/>
    <path class="cls-4" d="m216.88,300.5c.15-.12-.08-.23-.5-.19-.43,0-.54.12-.23.23.27.12.62.08.73-.04Z"/>
    <path class="cls-4" d="m230.06,302.08c.35-.12-.04-.19-.89-.15-.85,0-1.16.08-.66.15.46.08,1.16.08,1.55,0Z"/>
    <path class="cls-4" d="m242.89,302.74c-2.86,0-4.06.04-2.59.12,1.43.08,3.75.08,5.22,0,1.43-.08.23-.12-2.63-.12Z"/>
    <path class="cls-4" d="m363.75,239.74c-1.24-5.72-4.83-12.41-9.62-17.7-4.21-4.72-12.41-10.67-20.48-14.92-14.53-7.58-31.42-12.56-50.71-14.88-5.02-.62-17.39-1.08-19.17-.73-1.66.35-2.09.54-1.7.93.5.5,6.84,2.05,18.32,4.41,12.17,2.51,15.27,3.25,21.64,5.3,19.4,6.3,35.52,16.39,43.98,27.6,2.59,3.48,5.6,9.31,6.65,12.95,1.28,4.44,1.47,11.29.43,17.51-.46,2.71-.73,5.1-.62,5.3.27.43-2.9,4.17-6.22,7.34-10.78,10.28-28.18,18.86-48.51,23.96-3.44.89-6.34,1.47-6.45,1.35-.43-.43-.46-7.92,0-7.92.23,0,.19-.27-.12-.7-.5-.58-.46-.62.15-.12.85.66,4.91.39,6.18-.46.97-.62,6.92-2.59,7.85-2.59.35,0,1.16.43,1.86.97,2.05,1.55,4.37,2.2,7.96,2.28,2.9.04,3.56-.08,5.53-1.08,2.55-1.24,4.17-3.13,5.06-5.95.81-2.67,1.12-4.72.66-4.72-.23,0-.54.7-.66,1.55-.39,2.47-2.4,5.41-4.37,6.45-2.78,1.47-7.38,1.08-9.55-.77l-1-.85,4.64-2.05c15.03-6.69,26.63-16.85,30.69-26.94.93-2.32,1.93-5.87,1.51-5.37-.15.19-2.09,2.43-4.33,4.99-2.24,2.55-4.52,5.57-5.1,6.73-2.32,4.52-7.77,9.93-14.61,14.53-3.94,2.67-12.99,7.27-13.68,7-.93-.35-2.2-4.52-2.28-7.38v-2.78h9.2l9.02-.1-.23-1.62c-1.42-8.97-13.32-11.25-19.98-3.79-2.62,2.94-3.46,5.49-3.27,10.05.12,3.21.27,3.94,1.35,5.87l1.19,2.2-2.89.97c-2.5.85-2.85.89-2.62.31.54-1.2.69-2.78.27-2.78-.19,0-.5.58-.62,1.31-.27,1.47-1.12,2.4-2.62,2.74-.81.19-1.27.04-2-.73l-1-.97v-18.4c0-14.42-.12-18.36-.46-18.36-1.27,0-9.16,1.66-9.16,1.93,0,.19.58.43,1.27.58.65.15,1.62.5,2.12.81.81.54.85.73.85,6.88v6.33l-1.2-1.12c-.66-.62-2.16-1.39-3.36-1.74-1.85-.54-2.55-.58-4.71-.19-6.57,1.24-10.54,5.87-11.08,12.99-.39,5.14,1.62,9.97,5.02,11.94.89.5,2.66,1.12,3.94,1.35,4.52.85,7.99-.35,10.08-3.48l1.2-1.78.62,2.09c.77,2.47.85,3.83.19,4.1-.39.15-.39.23,0,.23.35.04.46,1.12.46,4.06,0,3.52-.08,4.06-.66,4.25-.73.23-11.89,2.16-12.51,2.16-.19,0-.35-.93-.35-2.09,0-2.51.04-2.55,4.71-2.55,1.93,0,3.44-.12,3.28-.23-.12-.15-1.7-.23-3.48-.19-1.78.04-3.55-.04-3.9-.19-.89-.35-.85-2.74.08-2.98.62-.15.62-.19,0-.23-.39,0-.7-.31-.7-.62,0-.85-.81-.7-1.04.15-.12.46-.62.85-1.24.93l-1,.15,1.08.08c1.12.04,1.35.7.66,2.01-.27.5-.85.73-1.85.77l-1.43.08,1.54.23,1.54.23v4.64l-2.05.19c-1.62.19-2.12.08-2.39-.39-.27-.46-.5-.5-1.04-.15-.46.31-1.04.31-1.78.08-.85-.31-1.39-.19-2.7.5-1.43.73-2.43.89-7.8,1.12l-6.18.23,5.89.08c5.46.08,5.92.12,5.65.73-1.04,2.67-.35,4.37,1.74,4.37,1.66,0,2.28-.35,3.29-1.86l.93-1.35.27,1.04c.15.58.66,1.2,1.12,1.39,1.2.46,3.56-.23,4.18-1.2.58-.93,1.04-.93,1.04,0,0,1.04,1.47,2.74,2.36,2.74,1.2,0,2.71-.97,4.41-2.74l1.55-1.66-1.63,1.24c-2.44,1.89-3.6,2.4-4.41,1.97-.81-.43-1.32-3.17-.93-4.95.19-.97.46-1.2,1.28-1.2,1.01,0,9.79-1.31,11.65-1.78l.93-.19-.27,8.62c-.12,4.75-.35,9.97-.5,11.63l-.23,3.05.93-.15c.66-.08,1.39-.85,2.52-2.63,5.49-8.58,9.48-13.18,13.23-15.19l2.01-1.08v.93c0,1.2,1.39,2.98,2.32,2.98.43,0,1.35-.54,2.13-1.2l1.35-1.2v1.2s.15,1.2.73,1.2c.5,0,.97-.62,1.58-2.05,1.35-3.21,1.7-3.4,1.93-1.2.31,2.86,1.12,2.67,2.59-.62,1.7-3.79,2.43-3.67,2.43.31,0,1.82.19,3.21.46,3.48.81.81,2.16.5,3.59-.73,1.16-1.04,1.35-1.08,1.35-.46,0,1.12.77,1.66,2.36,1.66,1.24,0,1.66-.27,2.82-1.62,1.2-1.35,1.39-1.47,1.39-.77,0,.46.43,1.12.97,1.47.77.5,1.16.54,2.24.19,1.39-.46,2.55-1.55,3.36-3.09.31-.62-.04-.39-1.04.66-2.63,2.78-4.25,2.01-3.83-1.86.27-2.16.23-2.32-.54-2.32-.43,0-.77.15-.77.35,0,.23-.46.23-1.16,0-1.66-.62-4.21.7-5.37,2.74-.97,1.74-2.51,3.09-3.59,3.09-.66,0-.73-.27-.66-3.13.08-3.36-.15-3.83-1.89-3.83-.5,0-1.31.46-1.89,1-.89.89-1,.93-1.66.35-.89-.81-1.74-.43-2.78,1.28-.81,1.31-.85,1.31-1.2.54-.62-1.39-1.43-1.39-1.43,0,0,2.09-2.86,4.37-3.71,2.98-.12-.23-.23-1.47-.19-2.71.04-2.01-.04-2.28-.7-2.28-.46,0-.81.31-.89.81-.08.54-.62,1-1.66,1.43-4.06,1.55-8.81,6.11-12.87,12.33-1,1.55-1.93,2.82-2.05,2.82-.35,0,.08-18.67.43-19.05.15-.19,2.16-.73,4.48-1.24,14.8-3.21,30.8-9.55,40.66-16.04,16.19-10.63,24.19-22.61,24.16-36.14,0-5.02-.62-7.61-3.05-12.95-1.31-2.86-1.47-3.4-.77-2.55,1.12,1.35,3.75,6.57,4.72,9.31.43,1.24.73,3.52.85,6.38.15,4.99-.35,7.65-2.24,11.87-.62,1.35-1.04,2.43-1,2.43.46,0,3.52-5.8,4.17-7.81,1.04-3.36,1.31-9.39.58-12.91Zm-55.93,31.85c0-1.28,1.66-4.6,2.82-5.64.54-.5,1.62-1.16,2.47-1.47,1.66-.62,3.71-.5,5.37.27,1.39.66,2.78,3.4,2.94,5.76l.12,1.74-6.88.12-6.84.08v-.85Zm-20.48,11.02c-1.2,3.25-3.44,4.99-6.38,4.99-3.4,0-5.26-1.24-6.73-4.29-.93-1.97-1-2.59-1-7.19s.12-5.26.89-6.96c1.12-2.43,2.16-3.59,4.14-4.52,2.13-1,5.37-.81,7.11.46,2.24,1.58,2.74,3.29,2.74,9.74,0,4.75-.12,6.03-.77,7.77Zm-20.6,21.61c-1.08,1.89-2.71,3.25-3.32,2.86-.62-.39-.54-2.01.15-3.32.54-1.04.81-1.16,2.36-1.16h1.78l-.97,1.62Zm7.3-1.16c-.35,1.74-2.09,3.48-3.29,3.32-1.08-.12-1.55-1.28-1.28-3.09.12-.85.39-1.08,1.39-1.2,3.32-.43,3.44-.39,3.17.97Zm55.58,1.31c.39-.97.97-1.93,1.31-2.16.93-.54,2.55-.31,2.71.39.12.73-1.7,3.59-2.71,4.21-.66.43-.89.39-1.39-.12-.54-.5-.5-.77.08-2.32Z"/>
    <path class="cls-4" d="m321.43,222.5c-1.47-2.98-3.25-4.64-6.15-5.72-3.9-1.47-9.08-1.24-12.45.54-2.24,1.2-4.52,3.79-5.45,6.26-.7,1.93-.81,2.86-.7,6.15.12,3.29.31,4.21,1.2,6.07,2.16,4.44,6.07,6.65,11.67,6.65s9.82-2.4,12.02-7.19c1-2.16,1.12-2.86,1.12-6.3s-.08-4.06-1.28-6.45Zm-4.91,11.83c-1.47,6.88-5.99,9.55-10.09,5.95-2.67-2.32-4.06-6.49-4.06-11.94,0-6.03,1.82-10.2,5.06-11.52,1.51-.58,2.4-.5,4.25.43,4.33,2.2,6.42,9.59,4.83,17.08Z"/>
  </g>
</svg>