<?xml version="1.0" encoding="UTF-8"?>
<svg id="Layer_1" data-name="Layer 1" xmlns="http://www.w3.org/2000/svg" viewBox="0 0 194.23 194.08">
  <defs>
    <style>
      .cls-1, .cls-2, .cls-3, .cls-4 {
        stroke-width: 0px;
      }

      .cls-2 {
        fill: #1a1a1a;
      }

      .cls-5 {
        opacity: .03;
      }

      .cls-6 {
        font-family: Modern-Regular, 'Modern No. 20';
        font-size: 37.13px;
      }

      .cls-6, .cls-7 {
        fill: #231f20;
      }

      .cls-3 {
        fill: silver;
      }

      .cls-4 {
        fill: rgba(255, 255, 255, .8);
      }

      .cls-7 {
        stroke: #fff;
        stroke-miterlimit: 10;
      }
    </style>
  </defs>
  <polygon class="cls-3" points="134.29 8.67 61.73 8.67 10.42 59.97 10.42 132.53 61.73 183.84 134.29 183.84 185.6 132.53 185.6 59.97 134.29 8.67"/>
  <path class="cls-3" d="m137.81,0H58.02L1.6,56.49v79.89l56.42,56.49h79.79l56.42-56.49V56.49L137.81,0Zm52.54,134.5l-54.09,54.09H59.76L5.67,134.5V58.01L59.76,3.91h76.5l54.09,54.09v76.5Z"/>
  <g id="layer1">
    <g id="g7535">
      <path id="path7476" class="cls-4" d="m107.26,175.21c1.01-.48,2.48-2.87,2.48-4.02,0-.82-.74-1.66-2.07-2.36-1.72-.91-2.13-1.36-1.41-1.59.45-.14,1.74.45,4.14,1.89,3.57,2.14,3.95,2.23,5.05,1.24.79-.71,1.78-2.62,1.9-3.66.08-.72.06-.75-.85-1.43-.51-.38-2.22-1.44-3.79-2.34-1.57-.9-2.94-1.76-3.03-1.92-.26-.41.17-.83.84-.83.55,0,.79.13,4.93,2.67,2.2,1.35,3.93,2.2,4.46,2.2,1.07,0,3.04-2.91,3.04-4.49,0-1.29-.93-2-6.34-4.87-1.43-.76-2.68-1.5-2.77-1.65-.27-.42.18-.82.92-.82.81,0,2.67.89,4.66,2.22,3.29,2.21,4.18,2.5,5.37,1.77,1.04-.64,2.29-3.05,2.08-4-.11-.52-.97-1.38-1.74-1.76-.29-.14-2.79-1.59-5.56-3.22-6.89-4.05-12.69-7.35-14.81-8.43l-1.77-.9-.72.5c-1.11.77-1.5,1.34-1.64,2.37-.22,1.65-.97,5.33-1.42,6.89-.49,1.73-.97,2.29-2.27,2.65-1.99.56-6.87-.68-8.44-2.14-1.34-1.24-1.43-2.84-.42-7.26.97-4.22,1.94-7.65,2.31-8.16.18-.25,1.32-1.11,2.52-1.93s2.24-1.53,2.31-1.6c.28-.28-2.21-1.28-2.98-1.2-.11.01-1.79,1.06-3.74,2.33-4.52,2.95-7.44,4.74-8.77,5.36l-1.05.49-2.43-.6c-2.02-.5-10.48-2.88-13.51-3.81l-.83-.25-.41.81c-1.63,3.23-3.32,9.6-3.75,14.11-.25,2.66-.32,10.36-.09,10.58.14.14,5.87,1.8,13.86,4.02l1.17.32.61-.85c.34-.47.92-1.06,1.31-1.31.6-.4.83-.45,1.7-.38,1.17.09,2.46.66,3.95,1.75l1.04.76,1.01-1.08c1.41-1.51,1.94-1.73,3.5-1.48,1.3.22,2.58.7,3.12,1.19.18.16.49.61.68.99.19.38.37.72.4.76.03.03.62-.22,1.31-.57,1.03-.51,1.44-.63,2.31-.63,1.93,0,4.16,1.4,5.03,3.16.25.51.49,1.05.53,1.2.06.19.37.31,1.04.38,1.89.2,4.07,1.76,4.91,3.52.62,1.32.5,2.53-.39,3.84-.52.77-.44,1.04.47,1.5.75.38,1.24.38,2.02.01h0Z"/>
      <path id="path7476-2" class="cls-1" d="m99.04,180.61c1.27-1.27,4.62-8.02,4.62-9.3,0-.73-.39-1.41-1.21-2.11-1.03-.88-2.66-1.27-3.48-.83-.18.09-1.5,2.19-2.94,4.67-2.27,3.88-2.63,4.6-2.63,5.24,0,1,.62,1.56,2.38,2.15,1.56.52,2.85.6,3.26.19Zm-7.12-4.64c1.69-2.25,5.73-8.88,5.72-9.39-.02-.61-.98-2.03-1.71-2.53-.98-.67-3.46-.92-4.19-.42-.1.07-1.33,2.27-2.74,4.89-2.97,5.54-3.01,5.68-1.82,6.71.76.66,3.39,2.04,3.69,1.94.1-.03.57-.57,1.04-1.2Zm-7.07-3.28c.7-.24,1.69-1.71,3.42-5.09.82-1.59,1.3-2.73,1.3-3.08,0-1.15-2.4-2.76-4.12-2.76h-.92l-2.46,3.68c-2.34,3.51-2.45,3.71-2.36,4.37.05.38.24.9.42,1.15.42.57,1.96,1.41,3.09,1.69,1.12.27,1,.27,1.62.05h0Zm-6.38-4.37c.81-.83,2.02-2.61,2.16-3.19.12-.49-.44-1.57-1.18-2.28-.78-.75-1.68-1.1-2.82-1.1s-1.65.36-2.9,2.14c-.97,1.37-1.08,2.06-.51,2.99.63,1.03,2.61,2.16,3.78,2.17.64,0,.83-.09,1.46-.73h0Zm49.71-7.06c5.25-1.37,9.57-2.59,9.73-2.75.52-.52.78-10.62.35-13.59-.39-2.72-1.58-6.21-3.42-10.08-.91-1.91-1.16-2.3-1.41-2.22-.17.05-3.53.92-7.48,1.92l-7.17,1.82-5-3.02c-2.75-1.66-5.98-3.58-7.16-4.25l-2.16-1.24h-3.51l-1.13.76c-.62.42-2.69,1.94-4.6,3.39-3.98,3.02-3.54,2.34-4.51,6.89-.78,3.66-1.03,5.64-.94,7.44.09,1.8.32,2.19,1.65,2.84.87.43,1.2.49,2.57.49,1.07,0,1.78-.09,2.21-.28.59-.26.68-.4,1.07-1.64.23-.75.76-2.9,1.17-4.78l.74-3.42,1.88-1.32c1.04-.73,1.93-1.32,1.99-1.32.3,0,23.38,13.38,23.93,13.87,1.54,1.39,1.77,3.33.66,5.51-.75,1.48-1.99,2.83-2.75,2.98l-.56.11v1.47c0,1.17.05,1.46.24,1.38.13-.05,1.75-.49,3.61-.97h0Z"/>
    </g>
  </g>
  <rect class="cls-7" x="22.79" y="117.05" width="149.69" height="2.01"/>
  <g class="cls-5">
    <g id="layer1-2" data-name="layer1">
      <path id="path47" class="cls-2" d="m139.95,21.84c-.09,0-.21.03-.39.1-.92.36-3.13,1.77-6.4,2.96-3.26,1.19-7.57,2.17-11.49,3.11-3.92.94-7.46,1.83-10.4,3.3s-5.29,3.52-7.12,5.54c-1.83,2.03-3.16,4.03-4.22,6.86-1.07,2.84-1.88,6.5-2.62,9.39s-1.42,4.99-1.9,6.42-.77,2.19-.93,2.59-.19.47-.62.29-1.26-.58-2.51-1.26-2.92-1.63-4.27-2.42-2.37-1.42-3.54-2.13c-1.17-.71-2.48-1.49-3.66-2.1s-2.22-1.05-2.98-1.36c-.77-.32-1.27-.51-1.85-.64s-1.27-.19-2.21-.23-2.15-.08-3.63-.17c-1.48-.09-3.25-.24-4.58-.46-1.33-.22-2.24-.51-2.84-.76-.6-.26-.9-.48-.88-.32.02.16.37.7.92,1.12.55.41,1.3.7,1.89.88.59.18,1.01.26,1.02.32,0,.07-.4.13-1.36.25-.96.12-2.46.3-4.23.67s-3.78.93-5.54,1.63-3.25,1.55-4.57,2.49-2.46,1.98-3.4,2.8c-.93.81-1.66,1.4-2.51,1.96-.85.56-1.83,1.09-2.8,1.51s-1.91.74-2.21,1.01.08.49.82.6c.74.11,1.86.13,3.11-.09,1.25-.21,2.62-.65,4.22-1.25,1.6-.6,3.42-1.37,4.73-1.98,1.31-.61,2.09-1.06,2.69-1.36.6-.31,1-.48,1.31-.51.3-.03.51.09.34.33s-.7.59-1.8,1.31c-1.1.72-2.76,1.82-4.28,2.8-1.52.98-2.89,1.84-4.53,2.84-1.64.99-3.53,2.11-4.66,2.77-1.13.66-1.49.85-1.35,1,.14.15.79.26,1.53.26s1.57-.11,2.58-.39c1.01-.29,2.19-.76,3.42-1.38,1.23-.62,2.51-1.39,3.75-2.19,1.24-.8,2.45-1.65,3.28-2.26.84-.61,1.31-1,1.7-1.18s.7-.16.78-.05c.08.11-.07.31-.43.67-.36.36-.94.87-1.93,1.73s-2.4,2.06-3.81,3.27-2.81,2.41-4.06,3.38c-1.24.98-2.32,1.72-3.04,2.2-.72.48-1.08.69-.91.82.17.12.87.15,1.65.05.78-.1,1.63-.34,2.52-.71.88-.37,1.8-.88,2.9-1.6,1.1-.72,2.38-1.65,3.39-2.46,1.01-.81,1.76-1.5,2.38-2.08s1.12-1.03,1.56-1.31c.43-.27.79-.36,1.06-.33.26.03.42.18.29.51s-.54.83-1.38,1.75-2.09,2.28-3.27,3.46-2.26,2.2-3.26,3.06c-1,.87-1.92,1.59-2.47,2.06-.55.47-.73.68-.69.82.04.13.29.19.87.15.58-.04,1.47-.17,2.48-.58,1.01-.42,2.14-1.12,3.26-1.99,1.11-.87,2.21-1.92,3.11-2.82.9-.91,1.59-1.67,2.03-2.13.44-.46.63-.61.72-.54.09.06.06.34-.2.86s-.76,1.29-1.46,2.16-1.59,1.85-2.39,2.68c-.8.82-1.5,1.48-1.97,1.92s-.69.65-.34.74c.35.09,1.26.04,2.2-.23.94-.28,1.9-.79,2.63-1.31.74-.52,1.25-1.04,1.68-1.52.44-.49.8-.93,1.06-1.16s.41-.24.29,0c-.12.25-.5.75-.85,1.31s-.66,1.18-.88,1.65-.36.79.08.86c.44.07,1.47-.1,2.24-.38s1.31-.68,1.91-1.19c.6-.52,1.26-1.16,1.75-1.72.49-.57.81-1.06,1.04-1.38s.39-.46.39-.42c0,.04-.14.27-.32.68-.18.41-.4,1.02-.56,1.61-.16.59-.26,1.17-.3,1.65s-.04.86.3.98,1-.01,1.52-.23c.52-.21.91-.51,1.29-.94.38-.43.77-1.01,1.16-1.73.4-.72.8-1.6,1.06-2.12.26-.52.36-.69.38-.66s-.04.23-.14.66c-.1.43-.23,1.07-.31,1.64-.08.57-.09,1.07-.03,1.45.01.09.03.17.05.24.77-2.92,2.36-4.1,2.92-4.28.14-.05.4-.11.44.1s-.1.6-.3.95-.48.66-.67.93c-.19.27-.3.52-.33.7s.04.31-.05.46-.36.33-.62.59-.54.6-.73.87c-.19.27-.29.48-.38.68-.04.09-.07.17-.11.25-.04.09-.07.19-.1.29-.08.29-.11.61-.09,1.01s.1.87.31,1.26c.21.38.55.68.78.84.23.16.35.19.36.11.01-.08-.09-.28-.14-.41-.06-.13-.07-.19.12-.32s.6-.32.98-.56.74-.51,1.03-.7.51-.31.99-.38c.47-.06,1.2-.07,1.98-.1s1.63-.05,2.26-.04c.63.01,1.06.06,1.55.21s1.03.39,1.52.51c.49.12.93.11,1.4.2s.99.28,1.66.62,1.5.83,2.12,1.43c.61.6,1.01,1.32,1.17,2.07.16.75.09,1.54-.09,2.23s-.44,1.27-.56,1.84c-.13.56-.12,1.11-.27,1.59s-.47.91-.86,1.29-.85.71-1.31.86c-.46.16-.93.14-1.31.13-.3-.01-.55-.02-.82-.07-.04-.09-.1-.25-.25-.42-.15-.17-.37-.36-.61-.47s-.47-.16-.69-.14-.42.09-.59.18c0,0-.01,0-.02.01,0,0,0-.01-.01-.02-.11-.16-.25-.28-.43-.36-.18-.08-.39-.11-.61-.1s-.45.06-.64.16c-.17.09-.32.23-.44.37-.12-.19-.31-.43-.51-.61-.23-.2-.5-.32-.77-.35s-.56,0-.79.07c-.23.07-.42.16-.55.29-.12.12-.19.25-.24.39-.02-.04-.04-.08-.05-.11-.09-.17-.17-.28-.28-.41s-.28-.26-.47-.34-.44-.1-.64-.06-.39.12-.54.25c-.15.13-.27.3-.32.47-.05.17-.05.33-.03.43s.04.14.07.09.08-.17.16-.29.18-.22.32-.27c.14-.06.32-.07.49-.02.17.05.34.15.47.3.11.12.19.26.27.39-.02.02-.05.04-.07.06-.22.23-.34.6-.17.86s.62.43.93.45.48-.1.68-.07c.2.03.44.21.75.3.3.09.66.09.89.14.23.05.32.14.11.17s-.7.02-1.11.08c-.05,0-.09.01-.14.02-.07-.08-.16-.14-.25-.2-.18-.09-.38-.14-.6-.14-.23,0-.48.02-.69.1s-.38.22-.5.39c-.13.17-.21.37-.21.59s.09.45.15.58.1.15.11.07c.01-.07,0-.24.03-.39.03-.15.12-.3.25-.4s.32-.16.53-.17c.14,0,.3.01.43.04-.09.24-.04.54.12.69.18.16.5.11.9.07.4-.05.88-.09,1.42-.12s1.15-.05,1.48-.02.41.08.22.2c-.2.12-.66.3-.85.6-.19.3-.1.72.22,1.01.13.12.3.21.48.29-.05.07-.1.13-.17.18-.23.21-.57.27-.9.25s-.66-.15-.93-.34-.45-.47-.61-.65c-.16-.18-.29-.26-.26-.05.03.22.22.73.58,1.1.35.37.86.59,1.33.66.47.06.89-.04,1.2-.23.31-.19.51-.46.63-.71.01-.03.02-.05.04-.08.24-.04.38-.19.51-.42.17-.29.33-.71.54-1.06s.44-.64.66-.8.41-.19.4-.02c-.02.17-.24.53-.17.67.08.14.45.07.79.02s.64-.06.81,0c.17.05.2.17-.07.33s-.82.35-1.2.64c-.38.29-.57.66-.42.97.1.21.37.39.63.52-.09.1-.18.21-.3.31-.2.16-.48.3-.75.37s-.54.06-.75-.05-.36-.34-.45-.52c-.09-.18-.13-.33-.17-.31-.03.02-.07.3-.04.45.06.33.19.69.44.92.27.24.66.35,1.03.37.37.02.75-.09,1.07-.28.26-.15.45-.41.62-.65.09-.13.15-.29.2-.42.1-.03.21-.09.33-.19.32-.25.78-.73,1.14-1.16.36-.43.63-.8,1-1.11s.84-.57,1.23-.47c.39.1.71.54.96,1.2s.42,1.54.56,2.17.28,1.04.52.99c.25-.05.61-.56.96-1.02s.69-.86,1.29-1.02c.6-.16,1.45-.07,2.47-.26s2.22-.63,3.19-1.2c.97-.58,1.72-1.28,2.19-2.12.47-.84.66-1.82.74-2.65.07-.83.03-1.51.35-1.77s1-.09,1.45.43.66,1.36.77,2.32.11,2.03.32,2.79.64,1.24,1.34,1.36c.7.13,1.68-.09,2.24.09s.68.73,1.22,1.32c.53.6,1.47,1.24,2.17,1.53s1.17.26,1.6.49.81.75,1.53,1.6c.72.85,1.79,2.05,2.47,2.52s.98.21,1.19.26.34.38,1.15.94c.81.55,2.3,1.32,2.9,1.22.6-.11.3-1.09,0-2.07-.3-.98-.6-1.96-.23-1.71s1.39,1.75,2.26,2.43c.87.68,1.6.55,1.73-.02.13-.58-.34-1.6-.72-2.37s-.68-1.28-.47-1.22.94.7,1.66,1.39,1.45,1.41,2.2,1.88,1.51.68,1.73.3-.13-1.36-.53-2.15-.87-1.39-.87-1.51.47.21,1.15.58c.68.36,1.58.75,2.05.64.47-.11.51-.7.09-1.34s-1.32-1.32-1.96-1.88-1.02-.98-.72-.9,1.28.68,2.3,1c1.02.32,2.09.36,2.56-.11s.34-1.45-.38-2.52-2.05-2.22-2.77-2.92-.85-.96-.47-.92,1.28.38,2.2.64,1.85.43,2.39,0c.53-.43.66-1.45.11-2.3s-1.79-1.53-2.56-1.98-1.07-.66-.6-.83c.47-.17,1.71-.3,2.43-.83s.94-1.47.19-2.22c-.75-.75-2.45-1.3-3.69-1.64s-2-.47-1.71-.77,1.66-.77,2.81-1.36c1.15-.6,2.09-1.32,1.94-1.96s-1.39-1.19-2.79-1.34c-1.41-.15-2.99.11-3.99.26s-1.43.19-1.32,0,.75-.62,1.47-1.22,1.54-1.36,1.92-2.24c.38-.87.34-1.85-.58-1.83-.92.02-2.71,1.04-4.84,2.11-2.13,1.07-4.61,2.17-6.57,2.88s-3.41,1-4.37.98c-.96-.02-1.43-.36-1.49-.7s.28-.68.55-1.19c.28-.51.49-1.19.3-1.64-.19-.45-.79-.66-.83-.83s.47-.3.9-.83.77-1.47.75-2.3c-.02-.83-.41-1.56-.6-2.28s-.19-1.45-.06-1.88c.13-.43.38-.55,1.34-.7s2.62-.32,3.73-.64c1.11-.32,1.66-.79,1.6-1.22-.06-.43-.75-.81-.53-1.04.21-.23,1.32-.32,2.3-.64s1.83-.87,2.11-1.39-.02-.98.26-1.32c.28-.34,1.13-.55,1.58-.85s.49-.68.11-.94-1.19-.38-1.45-.75c-.26-.36.04-.96,1.09-1.41s2.84-.75,3.99-1.07c1.15-.32,1.66-.66,1.73-.98.06-.32-.32-.62-1.02-.6-.7.02-1.73.36-2.58.47s-1.53-.02-1.64-.28c-.11-.26.36-.64,1.3-.96.94-.32,2.34-.58,3.67-.98s2.56-.96,2.9-1.32c.34-.36-.21-.53-.98-.51s-1.75.23-2.88.43-2.41.36-3.28.26c-.87-.11-1.34-.49-1.13-.72s1.11-.32,2.22-.43,2.43-.23,3.86-.51c1.43-.28,2.96-.7,3.79-1.22s.96-1.11.68-1.32c-.28-.21-.96-.04-2.07.17-1.11.21-2.64.47-4.03.51-1.39.04-2.62-.13-3.16-.36-.53-.23-.36-.53.43-.77.79-.23,2.2-.4,4.11-.96,1.92-.55,4.35-1.49,6.48-2.58,2.13-1.09,3.97-2.32,5.05-3.48s1.43-2.22,1.47-2.77c.04-.55-.21-.6-1.17.06-.96.66-2.62,2.03-4.33,3.05-1.71,1.02-3.45,1.71-5.1,2.26s-3.18.98-4.33,1.15c-1.15.17-1.92.09-2.26-.19-.34-.28-.26-.75,1.02-1.19,1.28-.45,3.75-.87,6.2-1.85,2.45-.98,4.88-2.52,6.69-4.07,1.81-1.56,3.01-3.13,3.77-4.43s1.11-2.32,1.26-3.01c.15-.68.11-1.02-.45-.53s-1.62,1.81-3.01,3.22c-1.39,1.41-3.09,2.9-4.63,3.88s-2.9,1.45-4.33,1.9-2.92.87-4.01,1.04-1.77.09-1.9-.19.3-.75,1.58-1.22,3.41-.94,5.46-1.88,4.01-2.35,5.73-3.94c1.73-1.6,3.22-3.39,4.09-4.78.87-1.39,1.13-2.37,1.26-2.96s.13-.81-.66-.11c-.79.7-2.37,2.32-3.73,3.54-1.36,1.22-2.52,2.03-4.01,2.88s-3.33,1.75-4.9,2.39c-1.58.64-2.9,1.02-3.94,1.19s-1.81.13-2.17-.06-.32-.53.64-.96c.96-.43,2.84-.94,4.86-1.94s4.2-2.49,5.67-3.88c1.47-1.39,2.24-2.66,2.81-3.65.47-.8.81-1.4.43-1.4h0Zm-6.53,4.78c.33,0-.04.33-.89.86-.9.57-2.35,1.39-4.22,2.26-1.87.87-4.16,1.81-6.33,2.68-2.17.87-4.22,1.69-6.05,2.56-1.82.87-3.42,1.81-5.08,3.33-1.66,1.52-3.38,3.63-4.79,6.23-1.42,2.59-2.53,5.67-3.63,8.94-1.1,3.27-2.19,6.74-3.54,9.33s-2.98,4.31-4.66,5.65-3.39,2.31-4.9,3.12c-.43.23-.84.45-1.23.65,0,.18,0,.4,0,.6,0,.42.05.75.02,1.12-.04.38-.17.8-.12.84.04.03.26-.33.47-.79s.43-1.03.54-.95.14.79.08,1.27c-.06.49-.2.74-.09.91s.46.26.8.29c.35.03.69.01.66.11-.03.1-.42.31-.73.44-.3.13-.52.17-.42.21.1.04.5.09.88.12s.73.07.74.2-.32.35-.79.53-1.09.3-1.26.43.11.24.47.57.81.86,1.08,1.31c.27.45.35.81.11.81-.15,0-.41-.13-.63-.24.38.31.78.67,1.17,1.01,1.01.88,1.93,1.7,2.96,2.35s2.19,1.14,3.85,1.63,3.84.98,5.31,1.66c.6.28,1.08.59,1.47.94.34-.08.87-.05,1.5.04.9.13,2,.4,2.95.9s1.75,1.24,2.41,2.09c.66.85,1.2,1.81,1.79,2.45.59.64,1.25.97,1.45,1.13s-.04.16-.67,0c-.63-.16-1.66-.49-2.62-1.1s-1.86-1.51-2.6-2.23-1.31-1.25-2-1.52c-.37-.15-.78-.22-1.16-.3.06.12.11.25.16.38.46,1.23.61,2.81.9,3.64.29.83.71.9,1.39,1.3s1.61,1.12,2.49,1.7,1.69,1.02,2.71,1.77c1.03.75,2.26,1.82,3.09,2.43.83.6,1.25.74,1.38.36.13-.38-.04-1.27.32-1.54s1.23.08,1.77.28.75.26.78-.06c.02-.32-.14-1.03.26-1.27.41-.24,1.39-.02,2.03,0,.65.02.97-.18.93-.6s-.41-1.05-.23-1.45c.17-.41.9-.59,1.12-.91s-.05-.79-.24-1.39-.32-1.34.13-1.85,1.45-.78,2.71-.8,2.77.2,3.75.5,1.45.68,1.36.77c-.09.09-.74-.11-1.64-.08s-2.04.26-2.53.66-.32.96.1,1.7c.42.74,1.1,1.66,1.54,2.33s.63,1.09.1,1.03-1.8-.6-2.68-.84-1.36-.18-1.11.4,1.23,1.68,1.4,2.1-.46.17-1.03-.06-1.09-.42-.93.06.99,1.64,1.31,2.31.14.83-.36.49c-.51-.34-1.33-1.18-2.04-1.66-.71-.47-1.3-.58-1.61-.47-.32.11-.36.42-.23.97s.45,1.33.38,1.49c-.07.16-.52-.31-1.12-.63-.6-.32-1.33-.5-1.72-.32-.38.19-.41.75-.41,1.35s.03,1.25-.23,1.28c-.26.03-.8-.56-1.45-.96s-1.42-.63-2.25-1.21c-.82-.58-1.7-1.52-2.56-2.21s-1.73-1.15-2.56-1.72c-.84-.57-1.65-1.27-2.46-1.64-.81-.38-1.61-.44-2.19-.6s-.94-.41-1.17-1.03c-.23-.62-.32-1.6-.52-2.65-.2-1.05-.52-2.16-1.24-2.92-.56-.59-1.36-.96-2.21-1.29-.04.53-.22,1.11-.47,1.61-.27.52-.61.95-1.04,1.26-.43.31-.94.49-1.37.58s-.78.09-.78.02.35-.21.72-.49c.37-.28.76-.68,1.04-1.15.29-.47.47-1,.56-1.45.06-.3.08-.57.14-.81-.3-.11-.61-.21-.9-.32.06.5-.12,1.06-.35,1.57-.3.65-.68,1.23-1.17,1.65s-1.05.68-1.53.85-.87.22-.79-.01,2.26-.97,2.15-3.43c-.06-1.37-1.4-1.75-1.58-1.8-.3-.09-.4-.05-.58.46s-.45,1.49-.79,2.32-.78,1.52-1.31,2.16-1.16,1.24-1.74,1.6-1.1.49-1.42.54-.44.03-.23-.15c.21-.18.75-.52,1.22-.93s.86-.88,1.27-1.53.83-1.48,1.16-2.26.58-1.5.68-2.04.05-.89-.32-1.26-1.06-.73-1.67-1.25-1.16-1.19-1.73-1.83c-.45-.5-.91-.98-1.29-1.48-.09.04-.02.23-.08.35-.08.14-.37.16-.67.12s-.62-.15-.7-.07c0,0-.01.01-.01.02.24.15.47.31.69.47.82.6,1.5,1.26,1.82,2.19s.26,2.14.06,3.02c-.2.88-.54,1.43-.77,1.89s-.35.82-.45,1.28c-.1.46-.19,1.03-.41,1.51s-.57.87-.85,1.11-.48.31-.44.14.33-.57.54-1.16.34-1.35.5-1.94.35-.99.56-1.49.43-1.08.45-1.82c.02-.74-.18-1.62-.56-2.36s-.96-1.32-1.62-1.8c-.45-.33-.93-.6-1.33-.8,0,0,0,.01.01.02.07.14-.03.17-.32.1-.29-.06-.76-.21-1.25-.4-.5-.19-1.02-.41-1.49-.54-.47-.13-.88-.18-1.38-.33-.5-.15-1.07-.42-1.77-.53s-1.52-.05-2.17,0c-.66.06-1.15.12-1.55.15s-.71.02-.78-.03c-.07-.05.1-.13.38-.23.28-.1.68-.2,1.01-.35s.6-.33.77-.52.26-.39.12-.48c-.14-.09-.52-.05-.87.02s-.7.18-1.08.25-.79.12-1.11.09c-.32-.03-.54-.12-.73-.34-.19-.22-.34-.56-.45-.8s-.2-.38-.31-.47-.23-.14-.28-.27c-.05-.13,0-.34.21-.66.22-.32.63-.74,1.07-1.12.45-.38.94-.72,1.53-1.03s1.28-.59,1.99-.75c.7-.16,1.42-.19,2.14-.26.72-.07,1.45-.17,2.19-.32s1.47-.35,2.16-.61c.69-.26,1.33-.57,1.96-.93.63-.37,1.26-.79,1.51-.93.06-.03.1-.05.12-.05.06,0-.04.13-.18.31-.17.23-.38.55-.5.82.02,0,.03-.01.04-.02.62-.35,1.68-.99,2.97-1.82s2.8-1.85,4.14-3.37,2.48-3.52,3.36-5.87c.87-2.36,1.47-5.06,2.16-7.7.69-2.63,1.48-5.19,2.61-7.68s2.6-4.89,4.43-6.92,4.03-3.67,6.33-4.9c2.3-1.24,4.71-2.07,7.66-2.88,2.95-.82,6.44-1.61,8.82-2.22s3.64-1.03,4.1-1.08c.03,0,.05,0,.08,0h0Zm-14.86,11.61c.1,0,.19,0,.28,0,1.5.03,2.84.33,3.8.64s1.54.64,1.26.98-1.43.69-3.02,1.3-3.63,1.5-5.03,2.27c-1.4.77-2.17,1.43-2.59,1.46-.42.02-.5-.59-.05-1.21s1.46-1.25,2.17-1.65,1.13-.57.79-.75-1.46-.36-2.54-.23c-1.08.14-2.14.6-3.02.96-.88.37-1.59.64-1.61.43-.02-.21.64-.9,1.58-1.61.95-.71,2.18-1.42,3.63-1.9,1.36-.45,2.91-.69,4.34-.69h0Zm-1.08,8.17c.62,0,1.23.06,1.81.17,1.15.21,2.14.6,2.84.95s1.11.68.85.9-1.18.35-2.48.63c-1.3.28-2.97.71-4.14,1.13-1.17.42-1.84.84-2.17.8s-.32-.52.11-.94c.43-.42,1.27-.78,1.87-1s.94-.3.7-.48-1.08-.46-1.93-.48-1.71.2-2.43.37-1.3.3-1.29.13.6-.62,1.41-1.04c.81-.43,1.85-.83,3.02-1.02.59-.1,1.21-.14,1.83-.13Zm-10.78.71s.05.02.07.06c.18.27.39,1.48.39,2.53,0,1.06-.21,1.96-.14,2.68.08.72.44,1.27.57,2.05.14.78.05,1.81-.2,2.49-.24.68-.63,1.01-.59,1.57.05.56.53,1.34.41,2.13-.12.78-.84,1.57-1.49,2.1s-1.22.8-1.31,1.28c-.09.48.3,1.18.23,1.69-.08.51-.62.84-1.19.96s-1.18.03-.99.39,1.15,1.18,1.51,1.84.12,1.18-.65,1.49-2.07.44-2.91.18c-.84-.26-1.24-.89-1.67-1.54-.44-.65-.92-1.31-.87-1.78s.62-.74,1.12-1.12.92-.86,1.34-1.34.84-.97,1.09-1.46.3-1.01.6-1.34c.3-.33.84-.48,1.09-.96s.18-1.3.41-1.84c.23-.54.74-.81.87-1.28s-.11-1.13-.02-1.64.51-.87.63-1.45-.06-1.36.08-1.97c.14-.62.59-1.07.68-1.58.09-.51-.18-1.09-.15-1.6.03-.51.36-.96.6-1.52.2-.45.33-.98.47-1.01,0,0,.02,0,.02,0h0Zm8.22,5.5c.13,0,.26,0,.39,0,1.06.04,2.2.29,3.16.68s1.76.9,2.31,1.33c.55.43.85.79.58.94s-1.09.1-2.27.11c-1.18.01-2.72.09-3.81.25-1.1.16-1.75.4-2.03.32s-.18-.51.26-.8,1.25-.45,1.81-.54.87-.1.69-.3-.86-.59-1.59-.76-1.53-.13-2.19-.11c-.66.02-1.18.03-1.15-.11s.63-.43,1.42-.66c.69-.2,1.52-.35,2.42-.36Zm-47.73.93c.92,0,2.04,0,3.21.24s2.41.69,3.39,1.26c.98.57,1.7,1.27,2.07,1.91.36.64.36,1.23.13,1.53-.23.3-.7.32-1.12.25-.42-.07-.8-.22-1.09-.08s-.5.58-.89.74c-.38.16-.94.04-1.27.16-.33.12-.44.48-.69.52s-.64-.25-1.03-.4-.78-.17-1.11-.35c-.32-.18-.58-.53-.96-.57s-.9.21-1.21.14c-.32-.07-.44-.46-.67-.74s-.58-.44-.77-.83c-.19-.38-.22-.99-.38-1.27-.17-.28-.47-.23-.83-.45-.36-.22-.78-.7-.65-1.08.14-.38.83-.65,1.54-.8.71-.15,1.43-.18,2.35-.19Zm-5.67,2.07c.19,0,.2.29-.03.55-.23.26-.71.49-1.05.64-.34.15-.53.21-.39.3.15.1.64.23,1.13.21s.98-.17,1.4-.3c.41-.13.74-.22.74-.12s-.33.38-.78.65-1.04.54-1.71.69c-.67.15-1.43.18-2.11.1s-1.26-.27-1.68-.45c-.42-.18-.66-.36-.52-.49s.67-.25,1.41-.45,1.69-.51,2.36-.79c.66-.28,1.04-.55,1.23-.54h0Zm16.51,1.94c1.63.09,4.75,5.11,4.75,5.11,0,0-.54-2.67-2.4-4.57,2.58.77,3.77,4.26,4.16,7.76.39,3.5-.99,5.31-.99,5.31,0,0-.61-4.28-1.38-6.29-1-2.62-2.56-5.11-4.14-7.33Zm34.71.41c.45,0,.94.05,1.44.16.8.18,1.64.53,2.33.95.69.43,1.22.93,1.58,1.34s.54.72.32.8c-.22.08-.85-.07-1.75-.23s-2.09-.3-2.95-.33c-.86-.03-1.4.07-1.6-.04s-.07-.41.31-.57c.38-.16,1.02-.18,1.46-.17s.68.05.57-.13c-.11-.18-.58-.57-1.11-.8-.54-.23-1.15-.31-1.66-.38s-.91-.14-.86-.24.54-.24,1.17-.31c.24-.02.49-.04.76-.04Zm-49.49.68c.23-.02.29.32.05.67s-.78.71-1.16.95c-.38.23-.61.34-.42.43.19.09.81.17,1.4.08.59-.1,1.16-.37,1.64-.59.48-.22.86-.38.88-.27s-.33.51-.84.91-1.17.82-1.97,1.11c-.79.29-1.71.45-2.53.47-.83.01-1.57-.13-2.1-.28s-.86-.32-.71-.51c.15-.19.77-.41,1.64-.77.86-.37,1.97-.89,2.73-1.34.76-.45,1.17-.83,1.4-.85Zm4.24,2.19c.25-.01.36.38.14.84-.23.49-.84,1.06-1.28,1.44-.44.37-.71.55-.44.63s1.06.05,1.79-.19,1.4-.7,1.96-1.08,1.01-.66,1.06-.52c.04.14-.32.71-.88,1.33-.56.62-1.32,1.28-2.26,1.81-.94.53-2.07.92-3.11,1.1s-2.01.16-2.72.07c-.71-.09-1.16-.23-1.01-.51.15-.27.9-.67,1.92-1.31,1.02-.64,2.31-1.53,3.18-2.26.87-.73,1.31-1.29,1.6-1.36.02,0,.04,0,.05,0Zm9.03.77s.03,0,.05.02c.1.11.02.78-.22,1.58s-.64,1.73-1.26,2.61-1.47,1.72-2.33,2.34c-.86.62-1.75,1.01-2.42,1.24-.68.23-1.14.29-1.13-.02s.52-.99,1.16-2.01,1.43-2.38,1.89-3.41c.47-1.03.62-1.73.85-1.92.23-.19.54.12.54.67,0,.55-.3,1.32-.53,1.85-.23.53-.4.8-.13.76.27-.04.98-.41,1.54-.94.56-.54.96-1.24,1.3-1.82.3-.51.56-.92.69-.94Zm2.61,13.81s-.05,0-.08.02c-.24.08-.83.48-1.44.61s-1.26-.03-1.65.02-.51.32-.71.51-.5.29-.76.35c-.26.06-.48.07-.56.11s0,.11.19.15.51.05.74.15.37.28.67.38.76.1,1.07,0c.31-.11.48-.34.77-.42s.73-.03,1.1-.1.66-.27.84-.5c.17-.23.21-.5.12-.55-.09-.05-.31.11-.53.24-.22.12-.44.2-.61.24-.17.04-.31.05-.27.02s.23-.12.44-.26.43-.34.59-.56c.14-.19.23-.4.08-.4Zm45.06,4.32c.35,0,.58.05.64.15.13.19-.78.67-1.24.88-.96.44-2.04.57-3.08.75-1.04.17-2.09.25-3.14.28-.85.03-1.97.02-2.56-.07-.13-.02-.52-.24.21-.33s2.09-.26,3.55-.56c1.46-.3,3.03-.74,4.2-.95.58-.11,1.07-.15,1.42-.15Zm-4.42,2.93c.81.02,1.77.15,2.7.28,1.21.17,2.37.32,3.25.48.87.16,1.46.32,1.31.53s-1.04.44-2.13.55-2.37.08-3.69-.1-2.68-.49-3.38-.66c-.71-.17-.77-.2-.51-.4s.83-.56,1.75-.65c.11-.01.24-.02.36-.02.11,0,.22,0,.34,0h0Zm.13,2.62s.04,0,.06,0c.22.02.81.16,1.97.48s2.89.84,4.54,1.42,3.2,1.25,3.91,1.65.57.53-.17.52-2.08-.18-3.39-.5-2.59-.78-3.72-1.38-2.09-1.32-2.65-1.73c-.49-.36-.66-.47-.55-.48Zm-6.61,0c.25-.01.69.1,1.22.3.86.33,1.98.9,3.04,1.39s2.03.9,2.73,1.62,1.1,1.74,1.33,2.33.27.76-.52.52c-.79-.24-2.4-.87-3.7-1.69-1.3-.82-2.28-1.82-3.05-2.63s-1.32-1.42-1.3-1.69c0-.1.1-.15.25-.16Zm-3.52,1.12c.33,0,1.41.48,2.36,1,1.01.55,1.87,1.14,2.65,1.93s1.47,1.77,1.89,2.48.56,1.17.36,1.3-.76-.05-1.42-.44-1.44-.98-2.25-1.83-1.65-1.95-2.41-2.83c-.77-.88-1.46-1.53-1.23-1.6.01,0,.03,0,.05,0h0Zm-33.1,5.7c.1,0,.2,0,.3.03.19.03.36.1.49.19s.21.18.29.3c0,.01.02.02.02.04,0,0-.01,0-.02,0-.34.02-.64-.02-.94-.12-.25-.08-.5-.2-.75-.25.09-.06.19-.12.33-.15.09-.02.18-.03.28-.03Zm2.85.16s.08,0,.13.02c.17.04.35.15.48.3.03.04.07.08.09.12-.03.05-.06.1-.08.15-.11-.02-.22-.06-.36-.11-.23-.08-.56-.18-.91-.19.11-.1.19-.17.32-.22.09-.04.21-.07.33-.06Z"/>
    </g>
  </g>
  <text class="cls-6" transform="translate(18.4 108.2)"><tspan x="0" y="0">SPECIAL</tspan></text>
</svg>