<?xml version="1.0" encoding="UTF-8"?>
<svg id="Layer_1" data-name="Layer 1" xmlns="http://www.w3.org/2000/svg" viewBox="0 0 194.06 194.06">
  <defs>
    <style>
      .cls-1 {
        font-size: 22.94px;
      }

      .cls-1, .cls-2 {
        font-family: BitterRoman-SemiBold, Bitter;
        font-variation-settings: 'wght' 600;
        font-weight: 600;
      }

      .cls-1, .cls-2, .cls-3 {
        fill: #1a401d;
      }

      .cls-4 {
        fill: #fff;
      }

      .cls-4, .cls-5, .cls-3 {
        stroke-width: 0px;
      }

      .cls-2 {
        font-size: 24.26px;
      }

      .cls-5 {
        fill: #af9030;
      }
    </style>
  </defs>
  <circle class="cls-4" cx="94.87" cy="93.34" r="62.09"/>
  <path class="cls-5" d="m97.03,0C43.44,0,0,43.44,0,97.03s43.44,97.03,97.03,97.03,97.03-43.44,97.03-97.03S150.62,0,97.03,0Zm-.66,188.48c-50.75,0-91.88-41.14-91.88-91.88S45.62,4.72,96.37,4.72s91.88,41.14,91.88,91.88-41.14,91.88-91.88,91.88Z"/>
  <path class="cls-5" d="m95.61,31.04c-35.02,0-63.41,28.39-63.41,63.41s28.39,63.41,63.41,63.41,63.41-28.39,63.41-63.41-28.39-63.41-63.41-63.41Zm-.43,123.19c-33.17,0-60.05-26.89-60.05-60.05s26.89-60.05,60.05-60.05,60.05,26.89,60.05,60.05-26.89,60.05-60.05,60.05Z"/>
  <text class="cls-1" transform="translate(27.51 72.75) rotate(-60.92)"><tspan x="0" y="0">H</tspan></text>
  <text class="cls-1" transform="translate(37.03 56.08) rotate(-46.41)"><tspan x="0" y="0">O</tspan></text>
  <text class="cls-1" transform="translate(49.33 43.04) rotate(-31.18)"><tspan x="0" y="0">M</tspan></text>
  <text class="cls-1" transform="translate(67.73 32.5) rotate(-16.86)"><tspan x="0" y="0">E</tspan></text>
  <text class="cls-1" transform="translate(81.81 28.16) rotate(-4.17)"><tspan x="0" y="0">O</tspan></text>
  <text class="cls-1" transform="translate(98.71 26.47) rotate(11.5)"><tspan x="0" y="0">W</tspan></text>
  <text class="cls-1" transform="translate(122.1 31.73) rotate(28.21)"><tspan x="0" y="0">N</tspan></text>
  <text class="cls-1" transform="translate(138.64 41) rotate(41.56)"><tspan x="0" y="0">E</tspan></text>
  <text class="cls-1" transform="translate(150.01 51.17) rotate(53.92)"><tspan x="0" y="0">R</tspan></text>
  <text class="cls-1" transform="translate(159.51 64.55) rotate(66.24)"><tspan x="0" y="0">S</tspan></text>
  <text class="cls-2" transform="translate(20.4 129.11) rotate(63.57) scale(1.04 1)"><tspan x="0" y="0">A</tspan></text>
  <text class="cls-2" transform="translate(31.2 148.94) rotate(47.82) scale(1.04 1)"><tspan x="0" y="0">S</tspan></text>
  <text class="cls-2" transform="translate(45.16 163.42) rotate(33.41) scale(1.04 1)"><tspan x="0" y="0">S</tspan></text>
  <text class="cls-2" transform="translate(62.41 174.23) rotate(17.95) scale(1.04 1)"><tspan x="0" y="0">O</tspan></text>
  <text class="cls-2" transform="translate(85.22 180.7) rotate(2.52) scale(1.04 1)"><tspan x="0" y="0">C</tspan></text>
  <text class="cls-2" transform="translate(105.62 180.82) rotate(-8.91) scale(1.04 1)"><tspan x="0" y="0">I</tspan></text>
  <text class="cls-2" transform="translate(118.49 178.87) rotate(-21) scale(1.04 1)"><tspan x="0" y="0">A</tspan></text>
  <text class="cls-2" transform="translate(137.7 170.98) rotate(-34.63) scale(1.04 1)"><tspan x="0" y="0">T</tspan></text>
  <text class="cls-2" transform="translate(152.99 159.58) rotate(-46.11) scale(1.04 1)"><tspan x="0" y="0">I</tspan></text>
  <text class="cls-2" transform="translate(162.65 149.54) rotate(-59.88) scale(1.04 1)"><tspan x="0" y="0">O</tspan></text>
  <text class="cls-2" transform="translate(174.18 127.96) rotate(-79.02) scale(1.04 1)"><tspan x="0" y="0">N</tspan></text>
  <g id="main-logo">
    <ellipse class="cls-3" cx="93.32" cy="96.44" rx="50.21" ry="26.37"/>
    <path class="cls-5" d="m81.58,99.02c-1.72,0-2.12.14-1.1.4.46.11.58.21.61.55.03.24-.72,2.62-1.81,5.71-1.02,2.91-1.87,5.32-1.89,5.35-.03.03-4.85-9.9-5.2-10.73-.26-.62-.08-.84.76-.93.38-.05.66-.14.61-.21-.11-.18-5.5-.18-5.61,0-.05.08.15.18.43.23.29.06.67.21.82.37.17.14,1.83,3.41,3.69,7.27,1.84,3.84,3.4,7.02,3.44,7.07.18.2.56-.76,2.8-7.16,1.68-4.75,2.53-6.99,2.76-7.18.17-.15.55-.3.84-.37,1.04-.2.49-.37-1.16-.37Z"/>
    <path class="cls-5" d="m90.63,122.35c-.56-.3-2.32-.7-10.73-2.47-4.04-.84-6.09-1.37-8.53-2.21-6.86-2.36-12.17-5.29-16.41-9.05-4.88-4.34-7.36-9.6-7.01-14.86.06-.76.24-2.24.41-3.28.18-1.04.29-1.95.26-2.06-.12-.32,2.01-2.74,3.73-4.24l.9-.78,1.3.49c.72.27,1.39.47,1.48.43.11-.03.37-.64.61-1.34.75-2.26,1.04-2.67,2.7-3.6,5.18-2.91,13.42-5.62,20.95-6.89,6.8-1.16,14.98-1.63,21.56-1.25,5.73.34,5.61.32,3.66.09-1.69-.21-13.5-.43-15.31-.29-7.16.58-11.75,1.26-17,2.59-4.22,1.05-9.81,3.06-13.12,4.72l-1.39.7.49-.62c1.07-1.36,3.08-2.68,5.96-3.95l.38-.17h-.38c-.21-.02-.88.12-1.49.29-3.2.88-5.88,2.83-7.74,5.64-.9,1.34-1.3,1.57-2.36,1.36-.46-.09-1.65-.17-2.65-.17-2.22.02-3.64.34-5.68,1.33-1.23.59-3.23,1.92-3.23,2.15,0,.05.38-.14.84-.4,1.05-.59,3.08-1.3,4.45-1.54,1.1-.2,4.28-.11,4.89.12.35.14.3.2-.82,1.2-2.42,2.16-4.53,5.1-5.5,7.71-1.49,3.96-1.31,7.97.55,11.76.78,1.6.55,1.49-.44-.21-1.26-2.18-1.81-3.92-1.94-6.17-.09-1.86.15-3.25.94-5.13.61-1.48.61-1.49-.14-.35-.88,1.34-1.25,2.32-1.55,4.08-.73,4.22,1.04,8.85,4.94,12.94,1.75,1.83,2.93,2.79,5.41,4.45,6.96,4.65,17.46,8.08,28.07,9.16,2.68.27,8.3.35,8.91.12q.37-.15.06-.32Z"/>
    <path class="cls-5" d="m51.57,62.7c2.65-.84,6.32-1.1,8.84-.61,2.45.46,5.03,1.57,7.5,3.21.67.46,1.34.81,1.46.78.12-.03.58-.64,1.01-1.39,1.17-2,2-3.05,3.61-4.59,2.36-2.24,4.83-3.52,8.43-4.37,1.02-.24,2.06-.5,2.3-.58.34-.11.02-.14-1.14-.12-2.74.02-4.56.34-6.78,1.19-2.77,1.07-4.62,2.35-7.04,4.85l-1.23,1.3-1.46-.58c-3.18-1.26-4.8-1.54-8.03-1.42-2.38.09-4.1.44-6.19,1.3-1.13.46-2.54,1.23-2.45,1.33.03.05.56-.09,1.19-.29Z"/>
    <path class="cls-5" d="m98.85,94.8c-.15.15-.47.26-.69.26-.23,0-.41.06-.41.15s.91.15,2.44.15,2.44-.06,2.44-.15-.2-.15-.44-.15c-.88,0-.93-.15-.93-3.66,0-1.8-.08-3.53-.17-3.99-.37-1.68-2-2.62-3.92-2.26-1.07.2-1.57.47-2.22,1.25-.3.35-.55.55-.55.46,0-.44-1.11-1.4-1.87-1.63-.43-.12-.94-.23-1.16-.21-1.14.05-2.33.58-2.91,1.31l-.3.4v-.72c0-.38-.05-.7-.11-.69-.72.05-3.63.73-3.66.85-.03.09.23.2.59.24.35.05.73.2.84.35.15.2.2,1.2.2,4.02,0,3.46-.03,3.78-.27,4.01-.15.15-.47.26-.69.26-.23,0-.41.06-.41.15s.96.15,2.59.15,2.59-.06,2.59-.15-.24-.15-.53-.15c-.34,0-.66-.12-.84-.3-.29-.29-.3-.5-.3-3.63,0-3.75.11-4.21,1.13-4.98.66-.5,1.78-.66,2.38-.35.82.44.91.91.91,5.03,0,3.72,0,3.76-.34,3.99-.18.14-.5.24-.69.24-.2,0-.35.06-.35.15s.91.15,2.44.15,2.44-.06,2.44-.15-.2-.15-.43-.15c-.9,0-.94-.21-.94-3.95s.08-4.17,1.17-5c.46-.35.7-.43,1.43-.43,1.02,0,1.42.27,1.66,1.13.08.3.15,2.16.15,4.14,0,3.29-.03,3.61-.27,3.84Z"/>
    <path class="cls-5" d="m70.17,92.33c.37-.98.56-2.45.34-2.45-.09,0-.2.38-.26.85-.17,1.46-.96,2.67-2.15,3.31-.5.27-.87.34-2.06.34s-1.57-.06-2.21-.37c-2.18-1.08-3.32-3.43-3.31-6.8,0-3.41,1.3-5.53,3.81-6.26.94-.27,2.3-.12,3.11.35,1.04.61,1.8,2.19,1.8,3.73,0,.32.08.58.15.58.09,0,.15-.96.15-2.59s-.06-2.59-.15-2.59c-.08,0-.15.09-.15.21,0,.11-.11.29-.23.4-.2.17-.41.12-1.26-.2-.56-.23-1.33-.44-1.69-.5l-.67-.11,1.16-.58c2.22-1.13,5.85-2.47,8.99-3.34.85-.24,1.42-.43,1.25-.44-1.07,0-7.01,1.94-10.06,3.26-1.08.49-2.39,1.01-2.89,1.17-1.77.58-2.71,1.1-3.58,1.95-.46.46-1.46,1.31-2.21,1.9-1.81,1.42-3.02,2.62-4.19,4.19-1.1,1.46-2.27,3.84-2.67,5.38-.26.96-.26,1.05-.02,1.6.14.3.46,1.39.7,2.39.52,2.12,1.02,3.2,2.29,4.97.78,1.1,3.46,3.98,3.11,3.34-.06-.12-.7-1.13-1.42-2.21-2.65-4.07-3.18-5.56-3.02-8.53.17-3.26,1.65-6.31,4.37-9.13l1.36-1.39-.21.84c-1.31,4.92,1.13,9.17,5.68,9.92,2.77.46,5.24-.84,6.14-3.2Z"/>
    <path class="cls-5" d="m86.54,80.14h-.46c-.66-.02-2.35.62-3.17,1.17-.38.26-1.02.87-1.43,1.34l-.75.85-.9-.26c-.67-.2-1.26-.24-2.38-.2-1.3.06-1.62.14-2.64.62-.64.3-1.16.58-1.16.62,0,.03.37-.08.81-.24,1.71-.66,3.95-.5,5.74.41.41.21.82.38.9.38s.38-.43.66-.94c.88-1.66,2.29-2.85,4.24-3.57l.53-.2Z"/>
    <path class="cls-5" d="m100.26,113.8c-.05-.09-.26-.15-.47-.15-.2,0-.5-.14-.67-.3-.29-.29-.3-.5-.3-3.4s.03-3.11.35-3.67c.55-.96,1.04-1.23,2.22-1.23.73,0,1.14.08,1.43.27.37.24.9.94,1.08,1.4.03.08.11.11.17.05.08-.06,0-.7-.14-1.4-.23-1.04-.34-1.31-.62-1.43-.38-.18-1.6-.35-1.83-.26-.08.03-.34.09-.56.14-.59.14-1.3.79-1.72,1.6l-.37.7-.02-1.11c0-.59-.03-1.1-.06-1.1-.08,0-2.94.58-3.41.69-.49.12-.3.32.4.44q1.02.15,1.02,4.39c0,3.6-.02,3.81-.29,4.02-.17.12-.49.21-.73.21-.23,0-.43.06-.43.15s.94.15,2.53.15,2.48-.05,2.42-.15Z"/>
    <path class="cls-5" d="m83.58,93.38c-.08,0-.15.14-.15.32,0,1.1-1.34,1.81-1.89,1.02-.2-.29-.24-.88-.24-3.4,0-1.72-.08-3.31-.17-3.66-.37-1.34-1.52-2.21-3.35-2.51-1.08-.17-1.04-.17-1.92,0-1.72.35-3.09,1.75-3.09,3.2,0,.62.24.58.35-.08.21-1.31,1.45-2.12,3.23-2.12s2.82.87,2.82,2.5v.87l-.87-.3c-2.33-.79-5.29.38-5.82,2.29-.21.78-.21,1.07.06,1.97.69,2.35,3.99,2.89,5.88,1.01l.7-.72.18.64c.21.84.81,1.17,2.07,1.17,1.08,0,1.8-.32,2.13-.98.26-.5.3-1.22.08-1.22Zm-4.47-1.97c-.03,1.22-.11,1.57-.37,1.9-.61.82-1.07,1.05-2.12,1.05-.82,0-1.03-.06-1.37-.38-1.29-1.19-1.05-3.75.41-4.43.76-.35,1.8-.32,2.83.09l.67.27-.06,1.49Z"/>
    <path class="cls-5" d="m114.64,87.75c-.58-1.17-1.41-1.97-2.42-2.32-2.12-.71-4-.18-4.84,1.36-.14.26-.17.15-.18-.58,0-.47-.03-.86-.06-.86-.08,0-2.92.58-3.39.68-.44.11-.29.38.2.38.2,0,.56.17.79.36l.42.36v6.07c0,4.37-.05,6.1-.18,6.23-.09.09-.39.21-.68.27-1.07.23-.35.39,1.8.44,2.32.05,2.88-.02,2.47-.27-.12-.09-.38-.15-.56-.15-.68,0-.8-.48-.8-3.01v-2.33l.35.3c.71.67,1.33.86,2.6.86,1.53,0,2.8-.53,3.72-1.53,1.01-1.1,1.27-1.83,1.27-3.68,0-1.5-.03-1.65-.5-2.6Zm-1.99,5.41c-.79,1.68-2.67,2.36-4.25,1.55-1.11-.55-1.22-.93-1.22-4.07,0-2.48.03-2.71.37-3.44.32-.7.84-1.23,1.46-1.48.12-.06.66-.08,1.16-.06,1.19.05,1.84.52,2.42,1.69.72,1.46.75,4.36.06,5.81Z"/>
    <path class="cls-5" d="m93.78,109.54c-.08,0-.15.18-.15.41,0,.56-.62,1.86-1.08,2.29-.53.49-1.4.81-2.21.81-2.3,0-3.66-1.49-3.84-4.19l-.08-1.3h7.21v-.5c0-1.14-1.07-2.61-2.24-3.09-.66-.27-1.97-.38-2.77-.21-1.65.35-3.08,1.49-3.79,3.02-.35.75-.41,1.07-.41,2.32s.06,1.57.4,2.29c.79,1.68,1.87,2.47,3.81,2.76.94.15,1.28.14,2.1-.08,1.13-.29,1.71-.67,2.32-1.51.67-.93,1.19-3,.75-3Zm-7.24-2.64c.06-.26.29-.84.53-1.25.32-.58.59-.85,1.22-1.19.94-.49,1.51-.52,2.38-.11.76.38,1.11,1.01,1.23,2.22l.09.82h-5.56l.11-.5Z"/>
    <path class="cls-5" d="m111.07,72.11q.88.08-.23-.14c-.62-.11-1.69-.24-2.36-.29l-1.22-.08,1.45.21c.79.11,1.86.24,2.36.29Z"/>
    <path class="cls-5" d="m82.71,117.93c-.17,0-.21.05-.09.09.11.05.24.03.29-.02.06-.05-.03-.09-.2-.08Z"/>
    <path class="cls-5" d="m81.95,117.78c-.17,0-.21.05-.09.09.11.05.24.03.29-.02.06-.05-.03-.09-.2-.08Z"/>
    <path class="cls-5" d="m59.34,108.97s.32.34.72.66.67.5.61.41c-.14-.21-1.33-1.17-1.33-1.07Z"/>
    <path class="cls-5" d="m60.86,110.21s.12.15.27.26c.23.2.24.18.05-.06-.2-.24-.32-.32-.32-.2Z"/>
    <path class="cls-5" d="m114.72,72.75c1.16.26,1.63.24.61-.02-.41-.11-.93-.2-1.14-.2s.03.09.53.21Z"/>
    <path class="cls-5" d="m140.06,81.51c.23.2.24.18.05-.06-.2-.24-.32-.32-.32-.2,0,.03.12.15.27.26Z"/>
    <path class="cls-5" d="m112.26,72.31c.14.03.35.03.46,0,.09-.05-.02-.08-.27-.08-.24,0-.34.03-.18.08Z"/>
    <path class="cls-5" d="m118.43,73.53c.11.05.24.03.29-.02.06-.05-.03-.09-.2-.08-.17,0-.21.05-.09.09Z"/>
    <path class="cls-5" d="m141.59,82.73c.56.44.93.7.82.56-.24-.3-2.1-1.77-1.97-1.54.06.09.56.53,1.14.98Z"/>
    <path class="cls-5" d="m117.66,73.38c.11.05.24.03.29-.02.06-.05-.03-.09-.2-.08-.17,0-.21.05-.09.09Z"/>
    <path class="cls-5" d="m113.17,72.46c.14.03.35.03.46,0,.09-.05-.02-.08-.27-.08-.24,0-.34.03-.18.08Z"/>
    <path class="cls-5" d="m116.29,73.07c.09.03.27.03.38,0,.09-.05.02-.08-.2-.08s-.29.03-.18.08Z"/>
    <path class="cls-5" d="m117.05,73.23c.11.05.24.03.29-.02.06-.05-.03-.09-.2-.08-.17,0-.21.05-.09.09Z"/>
    <path class="cls-5" d="m92.33,119.18c-.58,0-.84.03-.58.06.27.03.76.03,1.07,0,.32-.03.11-.06-.49-.06Z"/>
    <path class="cls-5" d="m121.5,117.4c0,.26.34.21.43-.06.03-.11-.05-.18-.18-.18s-.24.11-.24.24Z"/>
    <path class="cls-5" d="m113.54,114.65c.06-.05-.03-.09-.2-.08-.17,0-.21.05-.09.09.11.05.24.03.29-.02Z"/>
    <path class="cls-5" d="m112.77,114.81c.06-.05-.03-.09-.2-.08-.17,0-.21.05-.09.09.11.05.24.03.29-.02Z"/>
    <path class="cls-5" d="m111.19,115.13c.09-.05.02-.08-.2-.08s-.29.03-.18.08c.09.03.27.03.38,0Z"/>
    <path class="cls-5" d="m112.01,114.96c.06-.05-.03-.09-.2-.08-.17,0-.21.05-.09.09.11.05.24.03.29-.02Z"/>
    <path class="cls-5" d="m110.18,115.26c.06-.05-.03-.09-.2-.08-.17,0-.21.05-.09.09.11.05.24.03.29-.02Z"/>
    <path class="cls-5" d="m88.94,118.94c.09-.05.02-.08-.2-.08s-.29.03-.18.08c.09.03.27.03.38,0Z"/>
    <path class="cls-5" d="m87.88,118.78c.09-.05-.02-.08-.27-.08-.24,0-.34.03-.18.08.14.03.35.03.46,0Z"/>
    <path class="cls-5" d="m86.66,118.63c.09-.05-.02-.08-.27-.08-.24,0-.34.03-.18.08.14.03.35.03.46,0Z"/>
    <path class="cls-5" d="m85.5,118.46c.06-.05-.03-.09-.2-.08-.17,0-.21.05-.09.09.11.05.24.03.29-.02Z"/>
    <path class="cls-5" d="m90.7,119.09c.14-.05-.02-.08-.35-.06-.34,0-.46.03-.26.06.18.03.46.03.61,0Z"/>
    <path class="cls-5" d="m95.75,119.35c-1.13,0-1.6.02-1.02.05.56.03,1.48.03,2.06,0,.56-.03.09-.05-1.04-.05Z"/>
    <path class="cls-5" d="m143.4,94.51c-.49-2.26-1.9-4.89-3.79-6.98-1.66-1.86-4.89-4.21-8.08-5.88-5.73-2.99-12.39-4.95-19.99-5.87-1.98-.24-6.86-.43-7.56-.29-.66.14-.82.21-.67.37.2.2,2.7.81,7.22,1.74,4.8.99,6.02,1.28,8.53,2.09,7.65,2.48,14,6.46,17.34,10.88,1.02,1.37,2.21,3.67,2.62,5.1.5,1.75.58,4.45.17,6.9-.18,1.07-.29,2.01-.24,2.09.11.17-1.14,1.65-2.45,2.89-4.25,4.05-11.11,7.44-19.12,9.45-1.36.35-2.5.58-2.54.53-.17-.17-.18-3.12,0-3.12.09,0,.08-.11-.05-.27-.2-.23-.18-.24.06-.05.34.26,1.94.15,2.44-.18.38-.24,2.73-1.02,3.09-1.02.14,0,.46.17.73.38.81.61,1.72.87,3.14.9,1.14.02,1.4-.03,2.18-.43,1.01-.49,1.65-1.23,2-2.35.32-1.05.44-1.86.26-1.86-.09,0-.21.27-.26.61-.15.98-.94,2.13-1.72,2.54-1.1.58-2.91.43-3.76-.3l-.4-.34,1.83-.81c5.93-2.64,10.5-6.64,12.1-10.62.37-.91.76-2.32.59-2.12-.06.08-.82.96-1.71,1.97s-1.78,2.19-2.01,2.65c-.91,1.78-3.06,3.92-5.76,5.73-1.55,1.05-5.12,2.86-5.39,2.76-.37-.14-.87-1.78-.9-2.91v-1.1h3.63l3.55-.04-.09-.64c-.56-3.53-5.25-4.43-7.88-1.49-1.03,1.16-1.37,2.16-1.29,3.96.05,1.26.11,1.55.53,2.32l.47.87-1.14.38c-.99.34-1.12.35-1.03.12.21-.47.27-1.1.11-1.1-.08,0-.2.23-.24.52-.11.58-.44.94-1.03,1.08-.32.08-.5.02-.79-.29l-.39-.38v-7.25c0-5.68-.05-7.24-.18-7.24-.5,0-3.61.66-3.61.76,0,.08.23.17.5.23.26.06.64.2.83.32.32.21.33.29.33,2.71v2.49l-.47-.44c-.26-.24-.85-.55-1.32-.69-.73-.21-1-.23-1.86-.08-2.59.49-4.16,2.32-4.37,5.12-.15,2.03.64,3.93,1.98,4.71.35.2,1.05.44,1.55.53,1.78.34,3.15-.14,3.97-1.37l.47-.7.24.82c.3.98.33,1.51.08,1.62-.15.06-.15.09,0,.09.14.02.18.44.18,1.6,0,1.39-.03,1.6-.26,1.68-.29.09-4.69.85-4.93.85-.08,0-.14-.37-.14-.82,0-.99.02-1.01,1.86-1.01.76,0,1.35-.05,1.29-.09-.05-.06-.67-.09-1.37-.08-.7.02-1.4-.02-1.54-.08-.35-.14-.33-1.08.03-1.17.24-.06.24-.08,0-.09-.15,0-.27-.12-.27-.24,0-.34-.32-.27-.41.06-.05.18-.24.34-.49.37l-.4.06.43.03c.44.02.53.27.26.79-.11.2-.33.29-.73.3l-.56.03.61.09.61.09v1.83l-.81.08c-.64.08-.84.03-.94-.15-.11-.18-.2-.2-.41-.06-.18.12-.41.12-.7.03-.33-.12-.55-.08-1.07.2-.56.29-.96.35-3.08.44l-2.44.09,2.32.03c2.15.03,2.33.05,2.23.29-.41,1.05-.14,1.72.69,1.72.66,0,.9-.14,1.3-.73l.37-.53.11.41c.06.23.26.47.44.55.47.18,1.4-.09,1.65-.47.23-.37.41-.37.41,0,0,.41.58,1.08.93,1.08.47,0,1.07-.38,1.74-1.08l.61-.66-.64.49c-.96.75-1.42.94-1.74.78-.32-.17-.52-1.25-.37-1.95.08-.38.18-.47.5-.47.4,0,3.86-.52,4.59-.7l.37-.08-.11,3.4c-.05,1.87-.14,3.93-.2,4.59l-.09,1.2.37-.06c.26-.03.55-.34.99-1.04,2.17-3.38,3.74-5.2,5.22-5.99l.79-.43v.37c0,.47.55,1.17.92,1.17.17,0,.53-.21.84-.47l.53-.47v.47s.06.47.29.47c.2,0,.38-.24.62-.81.53-1.26.67-1.34.76-.47.12,1.13.44,1.05,1.02-.24.67-1.49.96-1.45.96.12,0,.72.08,1.26.18,1.37.32.32.85.2,1.42-.29.46-.41.53-.43.53-.18,0,.44.3.66.93.66.49,0,.66-.11,1.11-.64.47-.53.55-.58.55-.3,0,.18.17.44.38.58.3.2.46.21.88.08.55-.18,1.01-.61,1.33-1.22.12-.24-.02-.15-.41.26-1.04,1.1-1.68.79-1.51-.73.11-.85.09-.91-.21-.91-.17,0-.3.06-.3.14,0,.09-.18.09-.46,0-.66-.24-1.66.27-2.12,1.08-.38.69-.99,1.22-1.42,1.22-.26,0-.29-.11-.26-1.23.03-1.33-.06-1.51-.75-1.51-.2,0-.52.18-.75.4-.35.35-.4.37-.66.14-.35-.32-.69-.17-1.1.5-.32.52-.34.52-.47.21-.24-.55-.56-.55-.56,0,0,.82-1.13,1.72-1.46,1.17-.05-.09-.09-.58-.08-1.07.02-.79-.02-.9-.27-.9-.18,0-.32.12-.35.32-.03.21-.24.4-.66.56-1.6.61-3.47,2.41-5.07,4.86-.4.61-.76,1.11-.81,1.11-.14,0,.03-7.36.17-7.51.06-.08.85-.29,1.77-.49,5.84-1.26,12.14-3.76,16.03-6.32,6.38-4.19,9.54-8.91,9.52-14.25,0-1.98-.24-3-1.2-5.1-.52-1.13-.58-1.34-.3-1.01.44.53,1.48,2.59,1.86,3.67.17.49.29,1.39.34,2.51.06,1.97-.14,3.02-.88,4.68-.24.53-.41.96-.4.96.18,0,1.39-2.29,1.65-3.08.41-1.33.52-3.7.23-5.09Zm-22.05,12.55c0-.5.66-1.81,1.11-2.22.21-.2.64-.46.98-.58.66-.24,1.46-.2,2.12.11.55.26,1.1,1.34,1.16,2.27l.05.69-2.71.05-2.7.03v-.34Zm-8.08,4.34c-.47,1.28-1.36,1.97-2.51,1.97-1.34,0-2.07-.49-2.65-1.69-.37-.78-.4-1.02-.4-2.83s.05-2.07.35-2.74c.44-.96.85-1.42,1.63-1.78.84-.4,2.12-.32,2.8.18.88.62,1.08,1.3,1.08,3.84,0,1.87-.05,2.38-.3,3.06Zm-8.12,8.52c-.43.75-1.07,1.28-1.31,1.13-.24-.15-.21-.79.06-1.31.21-.41.32-.46.93-.46h.7l-.38.64Zm2.88-.46c-.14.69-.82,1.37-1.3,1.31-.43-.05-.61-.5-.5-1.22.05-.34.15-.43.55-.47,1.31-.17,1.36-.15,1.25.38Zm21.91.52c.15-.38.38-.76.52-.85.37-.21,1.01-.12,1.07.15.05.29-.67,1.42-1.07,1.66-.26.17-.35.15-.55-.05-.21-.2-.2-.3.03-.91Z"/>
    <path class="cls-5" d="m126.71,87.72c-.58-1.17-1.28-1.83-2.42-2.26-1.54-.58-3.58-.49-4.91.21-.88.47-1.78,1.49-2.15,2.47-.27.76-.32,1.13-.27,2.42.05,1.3.12,1.66.47,2.39.85,1.75,2.39,2.62,4.6,2.62s3.87-.94,4.74-2.83c.4-.85.44-1.13.44-2.48s-.03-1.6-.5-2.54Zm-1.94,4.66c-.58,2.71-2.36,3.76-3.98,2.35-1.05-.91-1.6-2.56-1.6-4.71,0-2.38.72-4.02,2-4.54.59-.23.94-.2,1.68.17,1.71.87,2.53,3.78,1.9,6.73Z"/>
  </g>
</svg>